<?xml version="1.0" encoding="utf-8"?>
<svg version="1.1" id="Layer_1" x="0px" y="0px" width="100%" viewBox="0 0 1080 1080" enable-background="new 0 0 1080 1080" xmlns="http://www.w3.org/2000/svg">
  <defs/>
  <path opacity="1.000000" stroke="none" d="&#10;M570.000000,1081.000000 &#10;&#9;C380.021881,1081.000000 190.543732,1081.000000 1.032801,1081.000000 &#10;&#9;C1.032801,721.063416 1.032801,361.126831 1.032801,1.095114 &#10;&#9;C360.895050,1.095114 720.790100,1.095114 1080.842529,1.095114 &#10;&#9;C1080.842529,360.999939 1080.842529,720.999939 1080.842529,1081.000000 &#10;&#9;C910.793030,1081.000000 740.646545,1081.000000 570.000000,1081.000000 &#10;M640.098389,83.414833 &#10;&#9;C610.197571,63.801567 580.265564,44.235634 550.424255,24.532328 &#10;&#9;C544.904907,20.888096 540.110168,20.917780 534.549683,24.723124 &#10;&#9;C519.448486,35.057610 504.085602,45.011002 488.791077,55.061634 &#10;&#9;C464.483765,71.034912 440.122803,86.926659 415.839050,102.935638 &#10;&#9;C408.580109,107.721069 408.602509,110.302483 415.784271,115.167809 &#10;&#9;C423.498077,120.393539 431.329163,125.445847 439.093109,130.597855 &#10;&#9;C491.071655,165.089844 542.964417,199.712036 595.053040,234.036850 &#10;&#9;C624.921265,253.719086 655.158569,272.840424 685.132446,292.363525 &#10;&#9;C714.810730,311.694000 744.468811,331.059204 773.934937,350.710236 &#10;&#9;C789.426758,361.041718 805.048523,371.307831 817.550293,385.452759 &#10;&#9;C822.959106,391.572449 826.943542,398.400299 827.909241,406.608704 &#10;&#9;C831.074768,433.515686 831.141785,460.480316 827.601440,487.311432 &#10;&#9;C825.866394,500.460663 819.243469,511.412994 807.965332,519.061890 &#10;&#9;C800.945312,523.822876 793.927856,528.588928 786.853149,533.267883 &#10;&#9;C739.284668,564.728027 691.704224,596.170105 644.104919,627.583740 &#10;&#9;C642.828857,628.425903 641.295105,628.877747 639.591309,629.641724 &#10;&#9;C639.591309,626.599121 639.595032,624.307922 639.590698,622.016663 &#10;&#9;C639.501953,574.855469 639.018066,527.689392 639.611633,480.536804 &#10;&#9;C639.752563,469.340729 636.796448,462.720856 627.144348,456.387909 &#10;&#9;C579.575317,425.176880 532.628601,393.018036 485.395966,361.292267 &#10;&#9;C482.237000,359.170380 478.530487,357.863708 474.220856,355.758972 &#10;&#9;C474.220856,517.353088 474.220856,677.422668 474.220856,838.449341 &#10;&#9;C472.016083,837.326050 470.403961,836.695374 468.995300,835.758667 &#10;&#9;C445.033600,819.825623 421.164642,803.752258 397.139771,787.915466 &#10;&#9;C359.084534,762.830139 320.833130,738.040771 282.916748,712.748352 &#10;&#9;C277.120667,708.882080 271.831329,703.589844 267.791534,697.903015 &#10;&#9;C260.561920,687.726013 259.382172,675.300720 257.984283,663.295349 &#10;&#9;C254.257370,631.287476 254.557205,599.129028 254.677811,566.957153 &#10;&#9;C254.948944,494.630341 254.765442,422.301849 254.774292,349.974030 &#10;&#9;C254.779709,305.643677 254.825974,261.313263 254.733749,216.983139 &#10;&#9;C254.728958,214.679535 253.594818,212.378281 252.986450,210.075943 &#10;&#9;C250.709610,210.828278 248.154022,211.146606 246.200012,212.401581 &#10;&#9;C230.524231,222.469467 214.959702,232.710617 199.365570,242.905548 &#10;&#9;C169.992065,262.109009 140.677887,281.404266 111.195183,300.438568 &#10;&#9;C106.188400,303.670959 104.684692,307.639923 104.698074,313.329742 &#10;&#9;C104.876236,389.151733 104.904465,464.974060 104.933533,540.796326 &#10;&#9;C104.962929,617.450684 105.036369,694.105347 104.818237,770.759033 &#10;&#9;C104.797981,777.876099 107.571159,782.310608 113.131996,785.973999 &#10;&#9;C123.827301,793.019775 134.284592,800.428528 145.015305,807.418579 &#10;&#9;C188.659500,835.848511 232.346375,864.213196 276.062531,892.532410 &#10;&#9;C320.325073,921.205627 364.650024,949.782471 408.930450,978.428101 &#10;&#9;C452.090057,1006.348694 495.277618,1034.226929 538.304688,1062.350464 &#10;&#9;C543.022827,1065.434326 546.098389,1063.272461 549.558777,1061.015259 &#10;&#9;C568.092041,1048.926392 586.601685,1036.801025 605.086975,1024.638916 &#10;&#9;C615.367493,1017.875061 625.595703,1011.031189 635.823425,1004.187439 &#10;&#9;C638.855713,1002.158386 639.805420,999.298340 639.774414,995.613831 &#10;&#9;C639.596191,974.450378 639.617004,953.285156 639.604675,932.120483 &#10;&#9;C639.588257,903.959106 639.429199,875.796082 639.686279,847.637024 &#10;&#9;C639.796875,835.518005 642.955444,824.082336 649.352844,813.567322 &#10;&#9;C656.127869,802.431396 665.990784,794.466797 676.515869,787.495972 &#10;&#9;C725.890564,754.794800 775.441284,722.358582 825.009827,689.951233 &#10;&#9;C873.318848,658.367432 921.654968,626.823547 970.167908,595.554993 &#10;&#9;C977.231750,591.002075 979.946899,585.897217 979.915344,577.343994 &#10;&#9;C979.591614,489.683197 979.606567,402.020355 979.916016,314.359467 &#10;&#9;C979.943542,306.568573 977.152161,302.135590 970.944336,298.252136 &#10;&#9;C954.160950,287.752838 937.603760,276.890045 921.008789,266.091644 &#10;&#9;C881.552368,240.417175 842.137207,214.679459 802.683899,189.000168 &#10;&#9;C772.299622,169.223740 741.884766,149.494141 711.479614,129.749756 &#10;&#9;C687.891418,114.432152 664.297241,99.123924 640.098389,83.414833 &#10;z" style="fill: rgba(0, 0, 0, 0);"/>
  <path opacity="1.000000" stroke="none" d="&#10;M640.402039,83.613174 &#10;&#9;C664.297241,99.123924 687.891418,114.432152 711.479614,129.749756 &#10;&#9;C741.884766,149.494141 772.299622,169.223740 802.683899,189.000168 &#10;&#9;C842.137207,214.679459 881.552368,240.417175 921.008789,266.091644 &#10;&#9;C937.603760,276.890045 954.160950,287.752838 970.944336,298.252136 &#10;&#9;C977.152161,302.135590 979.943542,306.568573 979.916016,314.359467 &#10;&#9;C979.606567,402.020355 979.591614,489.683197 979.915344,577.343994 &#10;&#9;C979.946899,585.897217 977.231750,591.002075 970.167908,595.554993 &#10;&#9;C921.654968,626.823547 873.318848,658.367432 825.009827,689.951233 &#10;&#9;C775.441284,722.358582 725.890564,754.794800 676.515869,787.495972 &#10;&#9;C665.990784,794.466797 656.127869,802.431396 649.352844,813.567322 &#10;&#9;C642.955444,824.082336 639.796875,835.518005 639.686279,847.637024 &#10;&#9;C639.429199,875.796082 639.588257,903.959106 639.604675,932.120483 &#10;&#9;C639.617004,953.285156 639.596191,974.450378 639.774414,995.613831 &#10;&#9;C639.805420,999.298340 638.855713,1002.158386 635.823425,1004.187439 &#10;&#9;C625.595703,1011.031189 615.367493,1017.875061 605.086975,1024.638916 &#10;&#9;C586.601685,1036.801025 568.092041,1048.926392 549.558777,1061.015259 &#10;&#9;C546.098389,1063.272461 543.022827,1065.434326 538.304688,1062.350464 &#10;&#9;C495.277618,1034.226929 452.090057,1006.348694 408.930450,978.428101 &#10;&#9;C364.650024,949.782471 320.325073,921.205627 276.062531,892.532410 &#10;&#9;C232.346375,864.213196 188.659500,835.848511 145.015305,807.418579 &#10;&#9;C134.284592,800.428528 123.827301,793.019775 113.131996,785.973999 &#10;&#9;C107.571159,782.310608 104.797981,777.876099 104.818237,770.759033 &#10;&#9;C105.036369,694.105347 104.962929,617.450684 104.933533,540.796326 &#10;&#9;C104.904465,464.974060 104.876236,389.151733 104.698074,313.329742 &#10;&#9;C104.684692,307.639923 106.188400,303.670959 111.195183,300.438568 &#10;&#9;C140.677887,281.404266 169.992065,262.109009 199.365570,242.905548 &#10;&#9;C214.959702,232.710617 230.524231,222.469467 246.200012,212.401581 &#10;&#9;C248.154022,211.146606 250.709610,210.828278 252.986450,210.075943 &#10;&#9;C253.594818,212.378281 254.728958,214.679535 254.733749,216.983139 &#10;&#9;C254.825974,261.313263 254.779709,305.643677 254.774292,349.974030 &#10;&#9;C254.765442,422.301849 254.948944,494.630341 254.677811,566.957153 &#10;&#9;C254.557205,599.129028 254.257370,631.287476 257.984283,663.295349 &#10;&#9;C259.382172,675.300720 260.561920,687.726013 267.791534,697.903015 &#10;&#9;C271.831329,703.589844 277.120667,708.882080 282.916748,712.748352 &#10;&#9;C320.833130,738.040771 359.084534,762.830139 397.139771,787.915466 &#10;&#9;C421.164642,803.752258 445.033600,819.825623 468.995300,835.758667 &#10;&#9;C470.403961,836.695374 472.016083,837.326050 474.220856,838.449341 &#10;&#9;C474.220856,677.422668 474.220856,517.353088 474.220856,355.758972 &#10;&#9;C478.530487,357.863708 482.237000,359.170380 485.395966,361.292267 &#10;&#9;C532.628601,393.018036 579.575317,425.176880 627.144348,456.387909 &#10;&#9;C636.796448,462.720856 639.752563,469.340729 639.611633,480.536804 &#10;&#9;C639.018066,527.689392 639.501953,574.855469 639.590698,622.016663 &#10;&#9;C639.595032,624.307922 639.591309,626.599121 639.591309,629.641724 &#10;&#9;C641.295105,628.877747 642.828857,628.425903 644.104919,627.583740 &#10;&#9;C691.704224,596.170105 739.284668,564.728027 786.853149,533.267883 &#10;&#9;C793.927856,528.588928 800.945312,523.822876 807.965332,519.061890 &#10;&#9;C819.243469,511.412994 825.866394,500.460663 827.601440,487.311432 &#10;&#9;C831.141785,460.480316 831.074768,433.515686 827.909241,406.608704 &#10;&#9;C826.943542,398.400299 822.959106,391.572449 817.550293,385.452759 &#10;&#9;C805.048523,371.307831 789.426758,361.041718 773.934937,350.710236 &#10;&#9;C744.468811,331.059204 714.810730,311.694000 685.132446,292.363525 &#10;&#9;C655.158569,272.840424 624.921265,253.719086 595.053040,234.036850 &#10;&#9;C542.964417,199.712036 491.071655,165.089844 439.093109,130.597855 &#10;&#9;C431.329163,125.445847 423.498077,120.393539 415.784271,115.167809 &#10;&#9;C408.602509,110.302483 408.580109,107.721069 415.839050,102.935638 &#10;&#9;C440.122803,86.926659 464.483765,71.034912 488.791077,55.061634 &#10;&#9;C504.085602,45.011002 519.448486,35.057610 534.549683,24.723124 &#10;&#9;C540.110168,20.917780 544.904907,20.888096 550.424255,24.532328 &#10;&#9;C580.265564,44.235634 610.197571,63.801567 640.402039,83.613174 &#10;z" style="fill: rgb(255, 255, 255);"/>
</svg>